<?xml version="1.0" encoding="iso-8859-1"?>
<!-- Generator: Adobe Illustrator 19.0.0, SVG Export Plug-In . SVG Version: 6.00 Build 0)  -->
<svg version="1.1" id="Capa_1" xmlns="http://www.w3.org/2000/svg" xmlns:xlink="http://www.w3.org/1999/xlink" x="0px" y="0px"
	 viewBox="0 0 470 470" style="enable-background:new 0 0 470 470;" xml:space="preserve">
<g>
	<path style="fill:#FF3213;" d="M260.02,270.075c-3.256-0.895-5.512-3.855-5.512-7.231v-16.142h-39.016v16.142
		c0,3.376-2.256,6.336-5.512,7.231c-40.7,11.19-69.126,48.521-69.126,90.78C140.854,412.767,183.088,455,235,455
		s94.146-42.233,94.146-94.146C329.146,318.595,300.72,281.265,260.02,270.075z M227.334,432.477
		c-0.753,3.521-3.865,5.933-7.326,5.933c-0.521,0-1.048-0.054-1.576-0.167c-36.26-7.756-62.577-40.302-62.577-77.387
		c0-31.846,18.981-60.465,48.358-72.912c3.814-1.616,8.216,0.166,9.831,3.98c1.616,3.814-0.165,8.215-3.979,9.832
		c-23.819,10.092-39.21,33.291-39.21,59.101c0,30.056,21.328,56.433,50.714,62.719C225.619,424.44,228.2,428.426,227.334,432.477z
		 M251.568,438.242c-0.528,0.113-1.057,0.167-1.576,0.167c-3.462,0-6.573-2.411-7.326-5.933c-0.866-4.05,1.715-8.037,5.766-8.903
		c29.386-6.286,50.714-32.663,50.714-62.719c0-4.142,3.357-7.5,7.5-7.5s7.5,3.358,7.5,7.5
		C314.146,397.939,287.828,430.486,251.568,438.242z"/>
	<path style="fill:#002E22;" d="M269.508,257.285v-10.584h0.5c4.143,0,7.5-3.358,7.5-7.5s-3.357-7.5-7.5-7.5h-9.688
		c2.27-4.123,3.565-8.855,3.565-13.885c0-13.333-9.083-24.58-21.385-27.891V7.5c0-4.142-3.357-7.5-7.5-7.5s-7.5,3.358-7.5,7.5
		v182.425c-12.302,3.312-21.385,14.558-21.385,27.891c0,5.03,1.295,9.762,3.565,13.885h-9.688c-4.143,0-7.5,3.358-7.5,7.5
		s3.357,7.5,7.5,7.5h0.5v10.584c-44.224,14.722-74.638,56.51-74.638,103.569C125.854,421.038,174.817,470,235,470
		s109.146-48.962,109.146-109.146C344.146,313.795,313.731,272.007,269.508,257.285z M235,455
		c-51.912,0-94.146-42.233-94.146-94.146c0-42.259,28.426-79.589,69.126-90.78c3.256-0.895,5.512-3.855,5.512-7.231v-16.142h39.016
		v16.142c0,3.376,2.256,6.336,5.512,7.231c40.7,11.19,69.126,48.521,69.126,90.78C329.146,412.767,286.912,455,235,455z
		 M221.115,217.816c0-4.893,2.55-9.193,6.385-11.667v0.282c0,4.142,3.357,7.5,7.5,7.5s7.5-3.358,7.5-7.5v-0.282
		c3.835,2.474,6.385,6.774,6.385,11.667c0,7.656-6.229,13.885-13.885,13.885S221.115,225.473,221.115,217.816z"/>
	<path style="fill:#FFFFFF;" d="M221.568,423.574c-29.386-6.286-50.714-32.663-50.714-62.719c0-25.81,15.391-49.008,39.21-59.101
		c3.814-1.616,5.596-6.018,3.979-9.832c-1.615-3.814-6.017-5.596-9.831-3.98c-29.377,12.447-48.358,41.066-48.358,72.912
		c0,37.085,26.317,69.631,62.577,77.387c0.528,0.113,1.056,0.167,1.576,0.167c3.461,0,6.573-2.411,7.326-5.933
		C228.2,428.426,225.619,424.44,221.568,423.574z"/>
	<path style="fill:#FFFFFF;" d="M306.646,353.354c-4.143,0-7.5,3.358-7.5,7.5c0,30.056-21.328,56.433-50.714,62.719
		c-4.051,0.866-6.632,4.853-5.766,8.903c0.753,3.522,3.864,5.933,7.326,5.933c0.52,0,1.048-0.054,1.576-0.167
		c36.26-7.756,62.577-40.302,62.577-77.387C314.146,356.712,310.788,353.354,306.646,353.354z"/>
</g>
<g>
</g>
<g>
</g>
<g>
</g>
<g>
</g>
<g>
</g>
<g>
</g>
<g>
</g>
<g>
</g>
<g>
</g>
<g>
</g>
<g>
</g>
<g>
</g>
<g>
</g>
<g>
</g>
<g>
</g>
</svg>
