<svg height="512pt" viewBox="0 -113 512 512" width="512pt" xmlns="http://www.w3.org/2000/svg"><path d="m93.75 168.5h-60v-30c0-5.523438 4.476562-10 10-10h40c5.523438 0 10 4.476562 10 10zm0 0" fill="#e64152"/><path d="m83.75 128.5h-30c5.523438 0 10 4.476562 10 10v30h30v-30c0-5.523438-4.476562-10-10-10zm0 0" fill="#d43b4c"/><path d="m252 278.5h-240.5c-2.210938 0-4-1.789062-4-4v-112c0-2.210938 1.789062-4 4-4h240.5c2.210938 0 4 1.789062 4 4v112c0 2.210938-1.789062 4-4 4zm0 0" fill="#f54558"/><path d="m226 158.5v120h26c2.210938 0 4-1.789062 4-4v-112c0-2.210938-1.789062-4-4-4zm0 0" fill="#e64152"/><path d="m478.25 168.5h-60v-30c0-5.523438 4.476562-10 10-10h40c5.523438 0 10 4.476562 10 10zm0 0" fill="#3be3eb"/><path d="m468.25 128.5h-30c5.523438 0 10 4.476562 10 10v30h30v-30c0-5.523438-4.476562-10-10-10zm0 0" fill="#2bc3d4"/><path d="m500.5 278.5h-240.5c-2.210938 0-4-1.789062-4-4v-112c0-2.210938 1.789062-4 4-4h240.5c2.210938 0 4 1.789062 4 4v112c0 2.210938-1.789062 4-4 4zm0 0" fill="#71f6fc"/><path d="m474.5 158.5v120h26c2.210938 0 4-1.789062 4-4v-112c0-2.210938-1.789062-4-4-4zm0 0" fill="#3be3eb"/><path d="m354 48.5h-60v-30c0-5.523438 4.476562-10 10-10h40c5.523438 0 10 4.476562 10 10zm0 0" fill="#ffbd54"/><path d="m344 8.5h-30c5.523438 0 10 4.476562 10 10v30h30v-30c0-5.523438-4.476562-10-10-10zm0 0" fill="#ffa347"/><path d="m218 48.5h-60v-30c0-5.523438 4.476562-10 10-10h40c5.523438 0 10 4.476562 10 10zm0 0" fill="#ffbd54"/><path d="m208 8.5h-30c5.523438 0 10 4.476562 10 10v30h30v-30c0-5.523438-4.476562-10-10-10zm0 0" fill="#ffa347"/><path d="m376.25 158.5h-240.5c-2.210938 0-4-1.789062-4-4v-112c0-2.210938 1.789062-4 4-4h240.5c2.210938 0 4 1.789062 4 4v112c0 2.210938-1.789062 4-4 4zm0 0" fill="#ffd659"/><path d="m350.25 38.5v120h26c2.210938 0 4-1.789062 4-4v-112c0-2.210938-1.789062-4-4-4zm0 0" fill="#ffbd54"/><path d="m504.5 181.570312c4.144531 0 7.5-3.359374 7.5-7.5v-12.566406c0-6.339844-5.160156-11.5-11.5-11.5h-14.75v-12.503906c0-9.648438-7.851562-17.5-17.5-17.5h-40c-9.648438 0-17.5 7.851562-17.5 17.5v12.503906h-23v-63.652344c0-4.144531-3.355469-7.5-7.5-7.5s-7.5 3.355469-7.5 7.5v63.648438h-233.5v-105.003906h233.5v9.519531c0 4.140625 3.355469 7.5 7.5 7.5s7.5-3.359375 7.5-7.5v-13.019531c0-6.339844-5.160156-11.5-11.5-11.5h-14.75v-12.496094c0-9.648438-7.851562-17.5-17.5-17.5h-40c-9.648438 0-17.5 7.851562-17.5 17.5v12.496094h-61v-12.496094c0-9.648438-7.851562-17.5-17.5-17.5h-40c-9.648438 0-17.5 7.851562-17.5 17.5v12.496094h-14.75c-6.339844 0-11.5 5.160156-11.5 11.5v108.507812h-23v-12.503906c0-9.648438-7.851562-17.5-17.5-17.5h-40c-9.648438 0-17.5 7.851562-17.5 17.5v12.503906h-14.75c-6.339844 0-11.5 5.160156-11.5 11.5v111.996094c0 6.339844 5.160156 11.5 11.5 11.5h20.5c4.144531 0 7.5-3.359375 7.5-7.5s-3.355469-7.5-7.5-7.5h-17v-104.996094h233.5v104.996094h-184.75c-4.144531 0-7.5 3.359375-7.5 7.5s3.355469 7.5 7.5 7.5c199.140625-.265625 181.351562-.265625 436.75 0 6.339844 0 11.5-5.160156 11.5-11.5v-67.683594c0-4.140625-3.355469-7.5-7.5-7.5s-7.5 3.359375-7.5 7.5v64.183594h-233.5v-104.996094h233.5v9.0625c0 4.144532 3.355469 7.503906 7.5 7.503906zm-203-164.070312c0-1.378906 1.121094-2.5 2.5-2.5h40c1.378906 0 2.5 1.121094 2.5 2.5v12.496094h-45zm-136 0c0-1.378906 1.121094-2.5 2.5-2.5h40c1.378906 0 2.5 1.121094 2.5 2.5v12.496094h-45zm260.25 120c0-1.378906 1.121094-2.5 2.5-2.5h40c1.378906 0 2.5 1.121094 2.5 2.5v12.503906h-45zm-384.5 0c0-1.378906 1.121094-2.5 2.5-2.5h40c1.378906 0 2.5 1.121094 2.5 2.5v12.503906h-45zm0 0"/></svg>