<svg height="512pt" viewBox="-11 0 512 512" width="512pt" xmlns="http://www.w3.org/2000/svg"><path d="m321.738281 293.957031h-153.589843v-144.128906h153.589843zm0 0" fill="#96e16f"/><path d="m244.941406 149.828125h76.796875v144.128906h-76.796875zm0 0" fill="#66cf61"/><path d="m60.035156 387.960938v-26.851563h-30.125v26.851563h-29.910156v124.039062h153.589844v-124.039062zm0 0" fill="#2acdfb"/><path d="m461.980469 387.960938v-26.851563h-30.125v26.851563h-95.558594v124.039062h153.589844v-124.039062zm0 0" fill="#fdb737"/><path d="m377.992188 263.828125v-30.703125h-30.125v30.703125h-205.847657v-30.703125h-30.125v30.703125h-27.066406v124.042969h320.230469v-124.042969zm0 0" fill="#915be0"/><path d="m405.058594 263.828125h-27.066406v-30.703125h-30.125v30.703125h-102.925782v124.042969h160.117188zm0 0" fill="#7742c9"/><path d="m292.855469 26.847656v-26.847656h-30.125v26.847656h-35.574219v-26.847656h-30.128906v26.847656h-28.878906v124.042969h153.589843v-124.042969zm0 0" fill="#ee6492"/><path d="m321.738281 26.847656h-28.882812v-26.847656h-30.125v26.847656h-17.789063v124.042969h76.796875zm0 0" fill="#f33e7a"/></svg>