<svg height="512pt" viewBox="0 -31 512 512" width="512pt" xmlns="http://www.w3.org/2000/svg"><path d="m270 330v105c0 8.398438-6.597656 15-15 15h-240c-8.402344 0-15-6.601562-15-15v-105l30-30h210.902344zm0 0" fill="#979fef"/><path d="m240.902344 300 29.097656 30v105c0 8.398438-6.597656 15-15 15h-120v-150zm0 0" fill="#737ee6"/><path d="m225 90h-60c-8.289062 0-15-6.710938-15-15v-60c0-8.289062 6.710938-15 15-15h60c8.289062 0 15 6.710938 15 15v60c0 8.289062-6.710938 15-15 15zm0 0" fill="#ae2538"/><path d="m105 90h-60c-8.289062 0-15-6.710938-15-15v-60c0-8.289062 6.710938-15 15-15h60c8.289062 0 15 6.710938 15 15v60c0 8.289062-6.710938 15-15 15zm0 0" fill="#e63950"/><path d="m497 300h-60c-8.289062 0-15-6.710938-15-15v-60c0-8.289062 6.710938-15 15-15h60c8.289062 0 15 6.710938 15 15v60c0 8.289062-6.710938 15-15 15zm0 0" fill="#ff9100"/><path d="m497 420h-60c-8.289062 0-15-6.710938-15-15v-60c0-8.289062 6.710938-15 15-15h60c8.289062 0 15 6.710938 15 15v60c0 8.289062-6.710938 15-15 15zm0 0" fill="#ff9100"/><path d="m270 75v105l-24.300781 30h-215.699219l-30-30v-105c0-8.402344 6.597656-15 15-15h240c8.402344 0 15 6.597656 15 15zm0 0" fill="#ff637b"/><path d="m270 75v105l-24.300781 30h-110.699219v-150h120c8.402344 0 15 6.597656 15 15zm0 0" fill="#e63950"/><path d="m0 180h270v150h-270zm0 0" fill="#7fe881"/><path d="m135 180h135v150h-135zm0 0" fill="#5bc980"/><path d="m437 450h-122c-8.289062 0-15-6.710938-15-15v-240c0-8.289062 6.710938-15 15-15h122c8.289062 0 15 6.710938 15 15v240c0 8.289062-6.710938 15-15 15zm0 0" fill="#ffb64c"/></svg>