<svg enable-background="new 0 0 24 24" height="512" viewBox="0 0 24 24" width="512" xmlns="http://www.w3.org/2000/svg"><path d="m14.752 15.268-.344-2.106 1.449-1.486c.177-.181.237-.446.157-.686s-.288-.414-.538-.453l-1.976-.302-.89-1.896c-.222-.474-.999-.474-1.222 0l-.89 1.896-1.976.302c-.25.038-.458.213-.538.453s-.019.505.157.686l1.449 1.486-.344 2.106c-.042.255.066.512.277.66.211.149.49.164.715.039l1.762-.972 1.76.973c.102.057.214.084.327.084.137 0 .273-.041.389-.123.21-.149.318-.406.276-.661z" fill="#ffa000"/><g fill="#ffc107"><path d="m17.091 5.662-.344 2.106c-.042.255.066.512.277.66.211.149.489.164.715.039l1.76-.973 1.76.973c.102.057.214.084.327.084.137 0 .273-.041.389-.123.211-.149.319-.406.277-.66l-.344-2.106 1.449-1.486c.177-.181.237-.446.157-.686s-.288-.414-.538-.453l-1.976-.302-.89-1.896c-.222-.474-.999-.474-1.222 0l-.89 1.896-1.976.302c-.25.038-.458.213-.538.453s-.019.505.157.686z"/><path d="m22.977 18.038-1.976-.302-.89-1.896c-.222-.474-.999-.474-1.222 0l-.89 1.896-1.976.302c-.25.038-.458.213-.538.453s-.019.505.157.686l1.449 1.486-.343 2.106c-.042.255.066.512.277.66.212.149.489.164.715.039l1.759-.973 1.76.973c.102.057.214.084.327.084.137 0 .273-.041.389-.123.211-.149.319-.406.277-.66l-.344-2.106 1.449-1.486c.177-.181.237-.446.157-.686-.079-.24-.287-.415-.537-.453z"/><path d="m2.091 5.662-.343 2.106c-.042.255.066.512.277.661s.49.164.715.039l1.76-.973 1.76.973c.102.057.214.084.327.084.137 0 .273-.041.389-.123.211-.149.319-.406.277-.66l-.344-2.107 1.449-1.486c.177-.181.237-.446.157-.686s-.288-.414-.538-.453l-1.976-.301-.89-1.896c-.222-.474-.999-.474-1.222 0l-.89 1.896-1.976.302c-.25.038-.458.213-.538.453s-.019.505.157.686z"/><path d="m7.977 18.038-1.976-.302-.89-1.896c-.222-.474-.999-.474-1.222 0l-.89 1.896-1.976.302c-.25.038-.458.213-.538.453s-.019.505.157.686l1.449 1.486-.344 2.106c-.042.255.066.512.277.66.211.149.49.164.715.039l1.76-.973 1.76.973c.102.057.214.084.327.084.137 0 .273-.041.389-.123.211-.149.319-.406.277-.66l-.344-2.106 1.449-1.486c.177-.181.237-.446.157-.686-.079-.24-.287-.415-.537-.453z"/></g><path d="m14.318 16.5c-.125 0-.25-.031-.363-.094l-1.955-1.08-1.955 1.081c-.251.14-.56.123-.795-.043s-.354-.451-.308-.734l.382-2.34-1.61-1.651c-.196-.201-.264-.496-.175-.762.089-.267.32-.46.598-.503l2.196-.336.989-2.106c.247-.526 1.11-.526 1.357 0l.989 2.106 2.196.336c.278.042.509.236.598.503s.021.561-.175.762l-1.61 1.651.382 2.34c.046.283-.073.568-.308.734-.13.09-.281.136-.433.136zm-2.318-2.781c.125 0 .25.031.363.094l.966.534-.194-1.189c-.038-.235.037-.474.204-.645l.855-.877-1.148-.176c-.247-.038-.459-.196-.565-.422l-.481-1.023-.48 1.022c-.106.226-.318.385-.565.422l-1.148.176.855.877c.167.17.242.41.204.645l-.194 1.189.966-.534c.112-.062.237-.093.362-.093z"/><path d="m21.818 9c-.125 0-.25-.031-.363-.094l-1.955-1.08-1.955 1.081c-.251.14-.56.123-.795-.043s-.354-.451-.308-.734l.382-2.34-1.61-1.651c-.196-.201-.264-.496-.175-.762.089-.267.32-.46.598-.503l2.196-.336.989-2.106c.247-.526 1.11-.526 1.357 0l.989 2.106 2.196.336c.278.042.509.236.598.503s.021.561-.175.762l-1.61 1.651.382 2.34c.046.283-.073.568-.308.734-.13.09-.281.136-.433.136zm-2.318-2.781c.125 0 .25.031.363.094l.966.534-.194-1.189c-.038-.235.037-.474.204-.645l.855-.877-1.149-.176c-.247-.038-.459-.196-.565-.422l-.48-1.023-.48 1.022c-.106.226-.318.385-.565.422l-1.148.176.855.877c.167.17.242.41.204.645l-.194 1.189.966-.534c.112-.062.237-.093.362-.093z"/><path d="m21.818 24c-.125 0-.25-.031-.363-.094l-1.955-1.08-1.955 1.081c-.252.14-.56.123-.795-.043-.234-.166-.354-.451-.308-.734l.381-2.34-1.61-1.651c-.196-.201-.264-.496-.175-.762.089-.267.32-.46.598-.503l2.196-.336.989-2.106c.247-.526 1.11-.526 1.357 0l.989 2.106 2.196.336c.278.042.509.236.598.503s.021.561-.175.762l-1.61 1.651.382 2.34c.046.283-.073.568-.308.734-.129.09-.28.136-.432.136zm-2.318-2.781c.125 0 .25.031.363.094l.966.534-.194-1.189c-.038-.235.037-.474.204-.645l.855-.877-1.148-.176c-.247-.038-.459-.196-.565-.422l-.48-1.022-.48 1.022c-.106.226-.318.385-.565.422l-1.148.176.855.877c.167.17.242.41.204.645l-.194 1.189.966-.534c.111-.063.236-.094.361-.094z"/><path d="m6.818 9c-.125 0-.25-.031-.363-.094l-1.955-1.08-1.955 1.08c-.251.14-.56.123-.795-.043s-.354-.45-.308-.734l.382-2.34-1.61-1.651c-.197-.2-.264-.495-.175-.762s.32-.46.598-.503l2.196-.336.989-2.106c.247-.526 1.11-.526 1.357 0l.989 2.106 2.196.336c.277.043.508.237.597.503.089.267.022.562-.174.763l-1.611 1.651.382 2.34c.046.283-.073.568-.308.733-.129.091-.28.137-.432.137zm-2.318-2.781c.125 0 .25.031.363.094l.966.534-.194-1.19c-.038-.235.037-.474.203-.644l.855-.877-1.148-.176c-.247-.038-.459-.196-.565-.422l-.48-1.023-.48 1.023c-.106.226-.318.384-.565.422l-1.149.176.855.877c.167.17.242.41.204.645l-.194 1.188.966-.534c.113-.062.238-.093.363-.093z"/><path d="m6.818 24c-.125 0-.25-.031-.363-.094l-1.955-1.08-1.955 1.081c-.251.14-.56.123-.795-.043s-.354-.451-.308-.734l.382-2.34-1.61-1.651c-.196-.201-.264-.496-.175-.762.089-.267.32-.46.598-.503l2.196-.336.989-2.106c.247-.526 1.11-.526 1.357 0l.989 2.106 2.196.336c.278.042.509.236.598.503s.021.561-.175.762l-1.61 1.651.382 2.34c.046.283-.073.568-.308.734-.13.09-.281.136-.433.136zm-2.318-2.781c.125 0 .25.031.363.094l.966.534-.194-1.189c-.038-.235.037-.474.204-.645l.855-.877-1.149-.176c-.247-.038-.459-.196-.565-.422l-.48-1.023-.48 1.022c-.106.226-.318.385-.565.422l-1.148.176.855.877c.167.17.242.41.204.645l-.194 1.189.966-.534c.112-.062.237-.093.362-.093z"/></svg>