<svg id="flat" height="512" viewBox="0 0 512 512" width="512" xmlns="http://www.w3.org/2000/svg"><path d="m400 40a54.626 54.626 0 0 0 -38.627-16h-5.089a68.283 68.283 0 0 0 -48.284 20 68.27 68.27 0 0 0 -20 48.277v11.723h-64c0-4 0-7.949 0-11.723a68.27 68.27 0 0 0 -20-48.277 68.283 68.283 0 0 0 -48.284-20h-5.089a54.626 54.626 0 0 0 -38.627 16 54.626 54.626 0 0 0 -16 38.627 80.567 80.567 0 0 0 23.6 56.973l16.4 16.4 8 16h224l8-16 16.4-16.4a80.567 80.567 0 0 0 23.6-56.973 54.626 54.626 0 0 0 -16-38.627z" fill="#074349"/><path d="m218.564 148.376 5.436 3.624h64l5.436-3.624a149.48 149.48 0 0 0 66.564-124.376h-3.716a68.283 68.283 0 0 0 -48.284 20 68.27 68.27 0 0 0 -20 48.277v11.723h-64c0-4 0-7.949 0-11.723a68.27 68.27 0 0 0 -20-48.277 68.283 68.283 0 0 0 -48.284-20h-3.716a149.48 149.48 0 0 0 66.564 124.376z" fill="#16696d"/><path d="m56 216h400a0 0 0 0 1 0 0v247.152a24.848 24.848 0 0 1 -24.848 24.848h-350.304a24.848 24.848 0 0 1 -24.848-24.848v-247.152a0 0 0 0 1 0 0z" fill="#df391d"/><path d="m440 216v215.152a24.848 24.848 0 0 1 -24.848 24.848h-350.304a24.762 24.762 0 0 1 -8.848-1.628v8.78a24.848 24.848 0 0 0 24.848 24.848h350.3a24.848 24.848 0 0 0 24.852-24.848v-247.152z" fill="#912e23"/><rect fill="#df391d" height="80" rx="13.823" width="432" x="40" y="152"/><path d="m458.177 152h-2.177v50.177a13.823 13.823 0 0 1 -13.823 13.823h-402.177v2.177a13.823 13.823 0 0 0 13.823 13.823h404.354a13.823 13.823 0 0 0 13.823-13.823v-52.354a13.823 13.823 0 0 0 -13.823-13.823z" fill="#912e23"/><path d="m248 232-192 192v-96l96-96z" fill="#ef705f"/><path d="m216 488 240-240v-16h-104l-256 256z" fill="#ef705f"/><path d="m440 264 16-16v-16h-16z" fill="#c44235"/><path d="m216 488 32-32h-120l-32 32z" fill="#c44235"/><path d="m400 488 56-56v-88l-144 144z" fill="#ef705f"/><path d="m440 448 16-16v-88l-16 16z" fill="#c44235"/><path d="m288 168h-64v-64a22.627 22.627 0 0 1 32 0 22.627 22.627 0 0 1 32 0z" fill="#16696d"/><path d="m272 97.372v14.88a23.748 23.748 0 0 1 -23.748 23.748h-24.252v32h64v-64a22.558 22.558 0 0 0 -16-6.628z" fill="#074349"/><path d="m400 488 32-32h-88l-32 32z" fill="#c44235"/><path d="m208 152h96v80h-96z" fill="#16696d"/><path d="m352 336 32-32 32 32v-126.843a57.157 57.157 0 0 0 -57.157-57.157h-38.843a80 80 0 0 1 32 64z" fill="#fcdd69"/><path d="m376 312v-96a80 80 0 0 0 -32-64h-24a80 80 0 0 1 32 64v120z" fill="#16696d"/><path d="m358.843 152h-24a57.157 57.157 0 0 1 57.157 57.157v102.843l24 24v-126.843a57.157 57.157 0 0 0 -57.157-57.157z" fill="#16696d"/><path d="m160 336-32-32-32 32v-126.843a57.157 57.157 0 0 1 57.157-57.157h38.843a80 80 0 0 0 -32 64z" fill="#fcdd69"/><path d="m168 152a80 80 0 0 0 -32 64v96l24 24v-120a80 80 0 0 1 32-64z" fill="#16696d"/><path d="m120 209.157a57.157 57.157 0 0 1 57.157-57.157h-24a57.157 57.157 0 0 0 -57.157 57.157v126.843l24-24z" fill="#16696d"/><g fill="#fcd3cd"><path d="m144.544 393.135-13.1-1.706a6.3 6.3 0 0 0 -5.5 2.035l-8.831 9.823a6.3 6.3 0 0 1 -10.879-3.056l-2.425-12.985a6.3 6.3 0 0 0 -3.635-4.6l-12.074-5.365a6.3 6.3 0 0 1 -.456-11.29l11.6-6.319a6.3 6.3 0 0 0 3.252-4.879l1.371-13.138a6.3 6.3 0 0 1 10.6-3.922l9.595 9.08a6.3 6.3 0 0 0 5.645 1.585l12.919-2.756a6.3 6.3 0 0 1 7.005 8.867l-5.671 11.93a6.3 6.3 0 0 0 .236 5.859l6.613 11.435a6.3 6.3 0 0 1 -6.265 9.402z"/><path d="m208.872 459.754-13.1-1.706a6.3 6.3 0 0 0 -5.5 2.035l-8.832 9.823a6.3 6.3 0 0 1 -10.879-3.055l-2.424-12.986a6.3 6.3 0 0 0 -3.635-4.6l-12.07-5.365a6.3 6.3 0 0 1 -.455-11.29l11.6-6.319a6.3 6.3 0 0 0 3.252-4.879l1.372-13.138a6.3 6.3 0 0 1 10.6-3.922l9.594 9.08a6.3 6.3 0 0 0 5.645 1.586l12.919-2.756a6.3 6.3 0 0 1 7.005 8.866l-5.671 11.931a6.3 6.3 0 0 0 .236 5.859l6.614 11.435a6.3 6.3 0 0 1 -6.271 9.401z"/><path d="m232.872 315.754-13.1-1.706a6.3 6.3 0 0 0 -5.5 2.035l-8.832 9.823a6.3 6.3 0 0 1 -10.879-3.055l-2.424-12.986a6.3 6.3 0 0 0 -3.635-4.6l-12.07-5.365a6.3 6.3 0 0 1 -.455-11.29l11.6-6.319a6.3 6.3 0 0 0 3.252-4.879l1.372-13.138a6.3 6.3 0 0 1 10.6-3.922l9.594 9.08a6.3 6.3 0 0 0 5.645 1.586l12.919-2.756a6.3 6.3 0 0 1 7.005 8.866l-5.671 11.931a6.3 6.3 0 0 0 .236 5.859l6.614 11.435a6.3 6.3 0 0 1 -6.271 9.401z"/><path d="m420.9 445.539-8.056-10.469a6.3 6.3 0 0 0 -5.327-2.45l-13.191.7a6.3 6.3 0 0 1 -5.532-9.853l7.468-10.9a6.3 6.3 0 0 0 .683-5.824l-4.745-12.324a6.3 6.3 0 0 1 7.661-8.305l12.671 3.734a6.3 6.3 0 0 0 5.75-1.15l10.259-8.32a6.3 6.3 0 0 1 10.267 4.72l.364 13.2a6.3 6.3 0 0 0 2.87 5.113l11.084 7.187a6.3 6.3 0 0 1 -1.316 11.222l-12.446 4.427a6.3 6.3 0 0 0 -3.976 4.31l-3.41 12.762a6.3 6.3 0 0 1 -11.078 2.22z"/></g><path d="m216 232h80v256h-80z" fill="#16696d"/><path d="m216 456h80v32h-80z" fill="#074349"/><path d="m208 216h96v16h-96z" fill="#074349"/><path d="m360.872 379.754-13.1-1.706a6.3 6.3 0 0 0 -5.5 2.035l-8.832 9.823a6.3 6.3 0 0 1 -10.879-3.055l-2.424-12.986a6.3 6.3 0 0 0 -3.635-4.6l-12.07-5.365a6.3 6.3 0 0 1 -.455-11.29l11.6-6.319a6.3 6.3 0 0 0 3.252-4.879l1.372-13.138a6.3 6.3 0 0 1 10.6-3.922l9.594 9.08a6.3 6.3 0 0 0 5.645 1.586l12.919-2.756a6.3 6.3 0 0 1 7 8.866l-5.671 11.931a6.3 6.3 0 0 0 .236 5.859l6.614 11.435a6.3 6.3 0 0 1 -6.266 9.401z" fill="#fcd3cd"/><path d="m360.29 473.059 5.671-11.931a6.3 6.3 0 0 0 -7-8.866l-12.919 2.756a6.3 6.3 0 0 1 -5.645-1.586l-9.594-9.08a6.3 6.3 0 0 0 -10.6 3.922l-1.372 13.138a6.3 6.3 0 0 1 -3.252 4.879l-11.6 6.319a6.3 6.3 0 0 0 .455 11.29l9.226 4.1h52.121l-5.253-9.082a6.3 6.3 0 0 1 -.238-5.859z" fill="#fcd3cd"/><path d="m248 224h16v240h-16z" fill="#fcdd69"/><path d="m248 152h16v72h-16z" fill="#fcdd69"/><path d="m264 152v-53.151a22.523 22.523 0 0 0 -8 5.151 22.523 22.523 0 0 0 -8-5.151v53.151z" fill="#fcdd69"/><path d="m248 456h16v32h-16z" fill="#e0b329"/><path d="m248 216h16v16h-16z" fill="#e0b329"/><path d="m264 152v-21.979a23.651 23.651 0 0 1 -15.748 5.979h-.252v16z" fill="#e0b329"/></svg>